<?xml version="1.0" encoding="utf-8"?>
<!-- Generator: Adobe Illustrator 15.0.2, SVG Export Plug-In  -->
<!DOCTYPE svg PUBLIC "-//W3C//DTD SVG 1.1//EN" "http://www.w3.org/Graphics/SVG/1.1/DTD/svg11.dtd" [
	<!ENTITY ns_flows "http://ns.adobe.com/Flows/1.0/">
]>
<svg version="1.1"
	 xmlns="http://www.w3.org/2000/svg" xmlns:xlink="http://www.w3.org/1999/xlink" xmlns:a="http://ns.adobe.com/AdobeSVGViewerExtensions/3.0/"
	 x="0px" y="0px" width="100px" height="100px" viewBox="0 0 100 100" enable-background="new 0 0 100 100" xml:space="preserve">
<defs>
</defs>
<rect id="_x3C_Slice_x3E__14_" fill="none" width="100" height="100"/>
<path fill="#0099FF" d="M50.332,38.657c-7.355,0-13.339,5.984-13.339,13.339s5.983,13.338,13.339,13.338
	c7.354,0,13.338-5.983,13.338-13.338S57.687,38.657,50.332,38.657z M85.269,11.791h-70.04c-9.21,0-9.969,0.759-9.969,9.969v57.914
	c0,9.209,0.759,9.969,9.969,9.969h70.04c9.21,0,9.97-0.76,9.97-9.969V21.76C95.238,12.55,94.479,11.791,85.269,11.791z
	 M50.332,75.339c-12.872,0-23.344-10.472-23.344-23.343c0-12.872,10.472-23.343,23.344-23.343c12.871,0,23.343,10.471,23.343,23.343
	S63.203,75.339,50.332,75.339z M84.409,26.491c0,1.473-1.195,2.667-2.669,2.667h-8.113c-1.475,0-2.669-1.194-2.669-2.667v-1.41
	c0-1.474,1.194-2.668,2.669-2.668h8.113c1.474,0,2.669,1.194,2.669,2.668V26.491z"/>
</svg>
